<?xml version="1.0" encoding="utf-8"?>
<!-- Generator: Adobe Illustrator 16.0.0, SVG Export Plug-In . SVG Version: 6.00 Build 0)  -->
<!DOCTYPE svg PUBLIC "-//W3C//DTD SVG 1.1//EN" "http://www.w3.org/Graphics/SVG/1.1/DTD/svg11.dtd">
<svg version="1.1" id="Capa_1" xmlns="http://www.w3.org/2000/svg" xmlns:xlink="http://www.w3.org/1999/xlink" x="0px" y="0px"
	 width="63px" height="90.781px" viewBox="0 9.781 63 90.781" enable-background="new 0 9.781 63 90.781" xml:space="preserve">
<g>
	<path fill="#FDFDFF" d="M55.546,14.019l-12.339-0.018c-13.866,0-22.827,8.147-22.827,20.757v9.57H7.974
		c-1.072,0-1.94,0.771-1.94,1.721v13.866c0,0.95,0.869,1.72,1.94,1.72H20.38v34.988c0,0.95,0.868,1.72,1.941,1.72h16.189
		c1.071,0,1.939-0.771,1.939-1.72V61.635h14.508c1.073,0,1.941-0.77,1.941-1.72l0.006-13.866c0-0.457-0.205-0.894-0.567-1.216
		c-0.363-0.323-0.858-0.505-1.374-0.505H40.45v-8.113c0-3.899,1.05-5.879,6.781-5.879l8.313-0.002c1.071,0,1.939-0.771,1.939-1.72
		V15.739C57.483,14.79,56.615,14.02,55.546,14.019z"/>
</g>
</svg>
