<?xml version="1.0" encoding="utf-8"?>
<!-- Generator: Adobe Illustrator 16.0.0, SVG Export Plug-In . SVG Version: 6.00 Build 0)  -->
<!DOCTYPE svg PUBLIC "-//W3C//DTD SVG 1.1//EN" "http://www.w3.org/Graphics/SVG/1.1/DTD/svg11.dtd">
<svg version="1.1" id="Capa_1" xmlns="http://www.w3.org/2000/svg" xmlns:xlink="http://www.w3.org/1999/xlink" x="0px" y="0px"
	 width="79px" height="103.5px" viewBox="0 0 79 103.5" enable-background="new 0 0 79 103.5" xml:space="preserve">
<g id="XMLID_122_">
	<g>
		<path fill="#FCFCFC" d="M74.934,44.007c0.336-2.254,0.546-4.727,0.597-7.498c-0.021-11.883-5.359-16.088-6.386-18.061
			c1.511-9.004-0.252-13.1-1.071-14.502c-3.024-1.145-10.528,2.953-14.626,5.837c-6.682-2.084-20.806-1.88-26.101,0.539
			c-9.771-7.454-14.938-6.317-14.938-6.317s-3.342,6.383-0.884,15.721C8.31,24.089,5.912,27.175,5.912,35.36
			c0,1.96,0.114,3.813,0.308,5.596C8.99,56.464,20.524,63.155,31.856,64.308c-1.705,1.381-3.752,3.992-4.036,7.02
			c-2.142,1.477-6.452,1.965-9.805,0.842c-4.696-1.58-6.492-11.486-13.526-10.074c-1.52,0.305-1.22,1.373,0.1,2.285
			c2.142,1.48,4.161,3.32,5.716,7.258c1.194,3.023,3.708,8.42,11.65,8.42c3.153,0,5.361-0.396,5.361-0.396s0.058,7.705,0.058,10.709
			c0,3.457-4.379,4.428-4.379,6.086c0,0.66,1.45,0.723,2.615,0.723c2.303,0,7.094-2.043,7.094-5.637
			c0-2.855,0.041-12.451,0.041-14.133c0-3.672,1.849-4.84,1.849-4.84s0.227,19.602-0.443,22.229c-0.788,3.09-2.214,2.65-2.214,4.027
			c0,2.053,5.76,0.5,7.67-3.992c1.479-3.508,0.818-22.732,0.818-22.732l1.538-0.035c0,0,0.019,8.805-0.032,12.826
			c-0.058,4.166-0.462,9.434,1.862,11.918c1.524,1.635,6.193,4.504,6.193,1.881c0-1.518-3.269-2.773-3.269-6.889V72.841
			c1.986,0,2.396,6.232,2.396,6.232l0.716,11.578c0,0-0.476,4.225,4.286,5.988c1.679,0.627,5.273,0.797,5.442-0.256
			c0.169-1.055-4.327-2.615-4.371-5.885c-0.022-1.992,0.086-3.158,0.086-11.82c0-8.66-1.093-11.863-4.897-14.414
			C61.408,63.058,72.871,57.81,74.934,44.007z"/>
	</g>
</g>
</svg>
