<?xml version="1.0" encoding="utf-8"?>
<!-- Generator: Adobe Illustrator 16.0.0, SVG Export Plug-In . SVG Version: 6.00 Build 0)  -->
<!DOCTYPE svg PUBLIC "-//W3C//DTD SVG 1.1//EN" "http://www.w3.org/Graphics/SVG/1.1/DTD/svg11.dtd">
<svg version="1.1" id="Capa_1" xmlns="http://www.w3.org/2000/svg" xmlns:xlink="http://www.w3.org/1999/xlink" x="0px" y="0px"
	 width="94px" height="90.106px" viewBox="457.445 331.14 94 90.106" enable-background="new 457.445 331.14 94 90.106"
	 xml:space="preserve">
<path fill="#FFFFFF" d="M536.552,336.176h-64.714c-5.574,0-10.333,5.236-10.333,10.794v64.756c0,5.557,4.759,9.521,10.333,9.521
	h64.714c5.574,0,10.034-3.965,10.034-9.521v-64.756C546.586,341.412,542.126,336.176,536.552,336.176z M534.55,348.328
	c1.613,0,2.921,1.308,2.921,2.921v9.352c0,1.613-1.308,2.921-2.921,2.921h-9.353c-1.613,0-2.921-1.308-2.921-2.921v-9.352
	c0-1.613,1.308-2.921,2.921-2.921H534.55z M504.294,363.162c9.017,0,16.325,7.293,16.325,16.285c0,8.993-7.309,16.286-16.325,16.286
	s-16.326-7.293-16.326-16.286C487.968,370.455,495.277,363.162,504.294,363.162z M537.47,409.553c0,1.307-1.389,2.579-2.699,2.579
	h-60.954c-1.311,0-3.197-1.272-3.197-2.579v-36.919h8.767c-0.598,3.039-0.919,4.457-0.919,6.813c0,14.206,11.585,25.76,25.826,25.76
	s25.826-11.558,25.826-25.763c0-2.353-0.321-3.771-0.916-6.81h8.267V409.553z"/>
</svg>
