<?xml version="1.0" encoding="utf-8"?>
<!-- Generator: Adobe Illustrator 16.0.0, SVG Export Plug-In . SVG Version: 6.00 Build 0)  -->
<!DOCTYPE svg PUBLIC "-//W3C//DTD SVG 1.1//EN" "http://www.w3.org/Graphics/SVG/1.1/DTD/svg11.dtd">
<svg version="1.1" id="Layer_1" xmlns="http://www.w3.org/2000/svg" xmlns:xlink="http://www.w3.org/1999/xlink" x="0px" y="0px"
	 width="99px" height="94.421px" viewBox="370.445 247.14 99 94.421" enable-background="new 370.445 247.14 99 94.421"
	 xml:space="preserve">
<g id="XMLID_801_">
	<path id="XMLID_802_" fill="#FFFFFF" d="M397.42,281.945h-17.674c-0.784,0-1.42,0.636-1.42,1.419v56.776
		c0,0.785,0.636,1.421,1.42,1.421h17.674c0.783,0,1.419-0.636,1.419-1.421v-56.776C398.839,282.581,398.203,281.945,397.42,281.945z
		"/>
	<path id="XMLID_803_" fill="#FFFFFF" d="M388.589,253.719c-6.431,0-11.661,5.226-11.661,11.649c0,6.426,5.23,11.654,11.661,11.654
		c6.427,0,11.653-5.229,11.653-11.654C400.242,258.945,395.015,253.719,388.589,253.719z"/>
	<path id="XMLID_804_" fill="#FFFFFF" d="M442.373,280.533c-7.099,0-12.346,3.053-15.528,6.52v-3.688
		c0-0.783-0.636-1.419-1.42-1.419H408.5c-0.785,0-1.421,0.636-1.421,1.419v56.776c0,0.785,0.636,1.421,1.421,1.421h17.635
		c0.783,0,1.419-0.636,1.419-1.421V312.05c0-9.466,2.571-13.154,9.171-13.154c7.186,0,7.757,5.912,7.757,13.642v27.604
		c0,0.785,0.636,1.421,1.42,1.421h17.642c0.784,0,1.42-0.636,1.42-1.421v-31.143C464.963,294.923,462.279,280.533,442.373,280.533z"
		/>
</g>
</svg>
